<svg width="1438" height="726" viewBox="0 0 1438 726" fill="none" xmlns="http://www.w3.org/2000/svg">
<path d="M1043.52 176.089L1043.92 177.586C1044.54 179.868 1044.54 179.868 1044.53 179.869L1044.53 179.872L1044.5 179.882L1044.41 179.919L1044.32 179.958C1044.25 179.986 1044.17 180.019 1044.07 180.058C1043.77 180.18 1043.33 180.356 1042.75 180.581C1041.59 181.03 1039.87 181.671 1037.63 182.444C1033.16 183.991 1026.6 186.071 1018.26 188.21C1001.57 192.49 977.714 197.015 948.997 198.012C891.563 200.006 814.639 187.888 736.762 131.418C685.008 93.89 646.27 46.5181 617.614 -1.52588e-05H622.475C650.689 45.1527 688.517 90.8739 738.679 127.247C815.793 183.164 891.971 195.174 948.891 193.198C977.35 192.21 1000.98 187.725 1017.49 183.492C1025.74 181.375 1032.21 179.322 1036.61 177.801C1038.81 177.04 1040.5 176.413 1041.62 175.978C1042.19 175.76 1042.61 175.59 1042.9 175.475L1043.06 175.407L1043.21 175.346L1043.29 175.314L1043.31 175.307L1043.31 175.305C1043.31 175.305 1043.31 175.305 1043.52 176.089Z" fill="#CBD400"/>
<path d="M1437.94 17.4721C1429.67 20.6617 1421.34 24.244 1412.96 28.2514C1328.93 68.4492 1272.88 135.72 1237.85 192.918C1220.33 221.518 1208.06 247.611 1200.17 266.566C1196.22 276.044 1193.37 283.74 1191.5 289.076C1190.56 291.744 1189.88 293.822 1189.42 295.237C1189.19 295.945 1189.02 296.488 1188.91 296.856C1188.85 297.04 1188.81 297.18 1188.78 297.276L1188.74 297.415L1188.73 297.423C1188.73 297.423 1188.73 297.424 1188.74 297.428C1188.76 297.437 1188.82 297.466 1189.02 297.562C1189.26 297.676 1189.71 297.885 1190.53 298.27L1191.71 298.823C1192.32 299.113 1192.32 299.113 1192.32 299.113L1192.32 299.108L1192.33 299.086L1192.36 298.992C1192.39 298.906 1192.43 298.776 1192.48 298.602C1192.59 298.255 1192.75 297.733 1192.97 297.046C1193.42 295.673 1194.09 293.638 1195.01 291.016C1196.85 285.771 1199.67 278.172 1203.57 268.797C1211.38 250.046 1223.53 224.197 1240.89 195.855C1275.6 139.169 1331.11 72.5558 1414.33 32.752C1422.25 28.9649 1430.12 25.5611 1437.94 22.5126V17.4721Z" fill="#CBD400"/>
<path d="M703.26 726C692.245 685.185 676.31 642.752 653.535 601.157C602.58 508.097 537.292 455.591 484.763 426.354C458.498 411.736 435.412 402.929 418.883 397.775C410.617 395.197 403.988 393.532 399.418 392.511C397.133 392 395.363 391.65 394.159 391.427C393.558 391.315 393.098 391.236 392.786 391.183C392.63 391.157 392.512 391.138 392.431 391.125L392.338 391.111L392.313 391.107L392.306 391.106C392.304 391.106 392.303 391.105 392.075 393.496L391.926 395.066C391.847 395.887 391.848 395.887 391.848 395.887L391.851 395.888L391.87 395.891L391.95 395.903C392.022 395.915 392.132 395.932 392.28 395.957C392.574 396.006 393.016 396.083 393.6 396.191C394.767 396.407 396.5 396.75 398.746 397.252C403.239 398.256 409.783 399.899 417.959 402.449C434.311 407.548 457.181 416.27 483.21 430.757C535.268 459.732 599.92 511.738 650.376 603.886C672.643 644.553 688.311 686.037 699.209 726H703.26Z" fill="#CBD400"/>
<path d="M-0.00292969 333.72C17.4425 335.331 38.0499 341.272 58.8649 356.365C85.7319 375.847 102.475 402.986 112.508 425.295C117.523 436.446 120.854 446.373 122.928 453.5C123.965 457.063 124.687 459.924 125.149 461.885C125.379 462.865 125.545 463.62 125.651 464.126C125.683 464.275 125.709 464.402 125.731 464.507L125.749 464.597L125.768 464.693L125.788 464.79L125.796 464.831L125.802 464.862L125.803 464.868C125.803 464.868 125.803 464.867 127.668 464.31C129.533 463.752 129.532 463.75 129.532 463.75L129.529 463.732L129.52 463.687C129.513 463.648 129.502 463.592 129.487 463.519C129.458 463.375 129.415 463.164 129.358 462.891C129.242 462.344 129.067 461.545 128.826 460.52C128.344 458.47 127.597 455.513 126.53 451.847C124.397 444.517 120.982 434.344 115.847 422.926C105.579 400.096 88.4003 372.221 60.7821 352.194C39.2665 336.593 17.9711 330.509 -0.00292969 328.892V333.72Z" fill="#CBD400"/>
<path d="M266.495 145.08C267.936 146.668 267.935 146.669 267.935 146.669L267.943 146.658L267.979 146.607C267.999 146.58 268.025 146.544 268.057 146.499C268.082 146.466 268.11 146.428 268.141 146.385C268.288 146.186 268.514 145.887 268.816 145.501C269.42 144.73 270.331 143.615 271.536 142.271C273.946 139.582 277.527 135.983 282.18 132.381C291.487 125.176 305.042 117.99 322.096 117.99C339.154 117.99 353.076 125.18 362.757 132.401C367.594 136.01 371.359 139.616 373.907 142.312C375.18 143.659 376.148 144.777 376.793 145.552C377.115 145.939 377.356 146.24 377.514 146.441C377.593 146.541 377.651 146.617 377.688 146.665L377.728 146.717L377.736 146.728L377.737 146.729C377.737 146.729 377.736 146.728 379.134 145.08C380.532 143.431 380.53 143.43 380.53 143.43L380.523 143.421L380.507 143.399C380.494 143.381 380.475 143.356 380.451 143.325C380.402 143.262 380.332 143.171 380.241 143.055C380.059 142.824 379.792 142.492 379.443 142.072C378.746 141.234 377.718 140.047 376.377 138.629C373.698 135.794 369.763 132.026 364.715 128.26C354.624 120.733 340.027 113.174 322.096 113.174C304.159 113.174 289.914 120.737 280.168 128.281C275.295 132.053 271.536 135.829 268.989 138.67C267.715 140.092 266.742 141.281 266.083 142.123C265.753 142.544 265.501 142.878 265.329 143.111C265.243 143.227 265.177 143.319 265.131 143.382C265.108 143.414 265.091 143.44 265.078 143.458L265.062 143.48L265.057 143.487L265.055 143.489C265.055 143.489 265.054 143.491 266.495 145.08Z" fill="#CBD400"/>
<path d="M1082.62 599.774C1082.56 600.067 1082.45 600.653 1082.24 601.826C1081.8 604.172 1081.8 604.171 1081.8 604.171L1081.8 604.17L1081.79 604.167L1081.75 604.156C1081.72 604.147 1081.68 604.134 1081.62 604.116C1081.51 604.082 1081.34 604.03 1081.13 603.96C1080.71 603.821 1080.09 603.61 1079.3 603.318C1077.71 602.734 1075.42 601.825 1072.59 600.516C1066.92 597.9 1059.07 593.684 1050.27 587.271C1032.68 574.446 1011.28 552.802 996.113 517.56C980.95 482.324 977.954 447.276 978.737 421.074C979.129 407.97 980.466 397.059 981.708 389.412C982.33 385.588 982.928 382.577 983.373 380.514C983.595 379.482 983.779 378.687 983.909 378.145C983.974 377.874 984.026 377.667 984.061 377.524L984.088 377.417L984.103 377.36L984.114 377.315L984.119 377.298C984.119 377.298 984.12 377.296 985.941 378.049C987.762 378.802 987.762 378.801 987.762 378.801L987.76 378.808L987.752 378.838L987.739 378.891L987.718 378.973C987.687 379.095 987.641 379.283 987.581 379.533C987.461 380.034 987.287 380.786 987.074 381.773C986.648 383.746 986.069 386.658 985.466 390.375C984.258 397.81 982.951 408.457 982.569 421.255C981.803 446.858 984.736 480.993 999.487 515.271C1014.23 549.543 1035.05 570.604 1052.2 583.106C1060.77 589.356 1068.42 593.459 1073.91 595.996C1076.66 597.264 1078.86 598.14 1080.38 598.697C1081.13 598.975 1081.71 599.173 1082.1 599.301C1082.3 599.365 1082.44 599.411 1082.54 599.44C1082.59 599.455 1082.62 599.466 1082.64 599.472L1082.67 599.479L1082.67 599.481L1082.66 599.556L1082.62 599.774Z" fill="#CBD400"/>
<path d="M756.442 327.852L757.787 328.687C758.384 329.056 758.773 329.298 759.028 329.456C759.196 329.561 759.306 329.629 759.376 329.673C759.506 329.754 759.506 329.754 759.506 329.754L759.505 329.757L759.491 329.792L759.454 329.882C759.423 329.959 759.378 330.069 759.319 330.209C759.201 330.49 759.027 330.894 758.795 331.408C758.332 332.435 757.637 333.901 756.699 335.688C754.824 339.261 751.972 344.129 748.042 349.357C740.183 359.812 727.982 371.748 710.657 377.578C693.336 383.407 677.679 380.851 666.38 376.86C660.728 374.864 656.151 372.503 652.979 370.636C651.392 369.702 650.155 368.89 649.308 368.307C648.884 368.015 648.558 367.78 648.334 367.616C648.292 367.585 648.253 367.556 648.218 367.53C648.161 367.487 648.114 367.452 648.077 367.424C648.047 367.401 648.023 367.383 648.007 367.371L647.986 367.355L647.978 367.349C647.978 367.349 647.976 367.347 648.987 365.301C649.997 363.255 649.997 363.254 649.997 363.254L649.997 363.255L650.007 363.262L650.056 363.3C650.102 363.334 650.174 363.388 650.271 363.459C650.465 363.602 650.76 363.814 651.151 364.084C651.933 364.622 653.099 365.388 654.606 366.275C657.623 368.051 662.002 370.311 667.419 372.224C678.257 376.052 693.187 378.472 709.664 372.927C726.136 367.383 737.749 356.036 745.254 346.051C749.006 341.06 751.723 336.419 753.498 333.038C754.384 331.348 755.034 329.975 755.459 329.034C755.564 328.802 755.655 328.596 755.732 328.418C755.759 328.356 755.785 328.297 755.809 328.242C755.83 328.192 755.85 328.144 755.869 328.1L755.894 328.043L755.929 327.96C755.979 327.84 756.016 327.75 756.039 327.693L756.064 327.632L756.069 327.619C756.069 327.619 756.069 327.62 756.442 327.852Z" fill="#CBD400"/>
<path d="M1317.39 550.179C1319.27 550.65 1319.27 550.651 1319.27 550.651L1319.27 550.637L1319.28 550.57C1319.29 550.508 1319.31 550.409 1319.33 550.277C1319.36 550.155 1319.38 550.004 1319.42 549.825C1319.45 549.672 1319.48 549.499 1319.52 549.307C1319.54 549.236 1319.55 549.163 1319.57 549.087C1319.78 548.039 1320.13 546.502 1320.64 544.582C1321.65 540.739 1323.32 535.373 1325.92 529.332C1331.11 517.248 1339.99 502.512 1354.76 491.804C1369.53 481.092 1384.45 478.575 1395.71 478.75C1401.33 478.837 1406.03 479.597 1409.31 480.331C1410.95 480.698 1412.23 481.059 1413.1 481.325C1413.53 481.458 1413.86 481.567 1414.08 481.642C1414.13 481.66 1414.18 481.676 1414.21 481.69L1414.32 481.726L1414.37 481.746L1414.38 481.751L1414.38 481.751L1414.4 481.699L1414.94 479.445C1415.49 477.14 1415.49 477.14 1415.49 477.14L1415.48 477.136L1415.46 477.128L1415.38 477.099L1415.25 477.054C1415.21 477.037 1415.15 477.018 1415.09 476.997C1414.94 476.947 1414.76 476.885 1414.54 476.814C1414.38 476.763 1414.2 476.707 1414.01 476.646C1413.07 476.358 1411.71 475.976 1409.98 475.59C1406.53 474.818 1401.63 474.025 1395.75 473.934C1384.02 473.752 1368.37 476.372 1352.84 487.633C1337.3 498.897 1327.98 514.392 1322.54 527.045C1319.82 533.372 1318.07 539.002 1317 543.063C1316.46 545.094 1316.09 546.735 1315.85 547.878C1315.8 548.132 1315.76 548.362 1315.72 548.565C1315.67 548.82 1315.63 549.035 1315.6 549.207C1315.57 549.361 1315.55 549.482 1315.53 549.566L1315.52 549.665L1315.51 549.694L1315.51 549.703L1315.51 549.706C1315.51 549.706 1315.51 549.707 1315.81 549.783L1317.39 550.179Z" fill="#CBD400"/>
</svg>
