<svg width="1439" height="727" viewBox="0 0 1439 727" fill="none" xmlns="http://www.w3.org/2000/svg">
<path d="M394.916 549.035L394.518 547.536C393.911 545.253 393.912 545.253 393.914 545.252L393.92 545.249L393.944 545.239L394.033 545.202L394.128 545.163C394.195 545.136 394.277 545.103 394.374 545.064C394.673 544.943 395.116 544.768 395.699 544.545C396.863 544.099 398.582 543.464 400.822 542.696C405.302 541.162 411.862 539.101 420.212 536.985C436.912 532.754 460.781 528.297 489.501 527.382C546.941 525.552 623.83 537.889 701.546 594.581C753.193 632.257 791.796 679.739 820.319 726.339L815.458 726.325C787.373 681.092 749.675 635.263 699.617 598.747C622.662 542.61 546.519 530.383 489.594 532.196C461.132 533.103 437.486 537.52 420.966 541.706C412.707 543.799 406.231 545.834 401.827 547.342C399.625 548.097 397.942 548.719 396.812 549.152C396.248 549.368 395.822 549.536 395.539 549.65L395.371 549.718L395.222 549.779L395.146 549.81L395.128 549.818L395.125 549.819C395.125 549.819 395.124 549.819 394.916 549.035Z" fill="#CBD400"/>
<path d="M0.0498241 706.525C8.32449 703.359 16.6644 699.801 25.0537 695.817C109.205 655.859 165.444 588.748 200.637 531.651C218.234 503.101 230.576 477.044 238.523 458.111C242.497 448.644 245.373 440.956 247.258 435.626C248.201 432.961 248.896 430.885 249.357 429.47C249.587 428.763 249.759 428.221 249.874 427.853C249.932 427.669 249.975 427.529 250.004 427.434L250.047 427.295L250.049 427.286C250.049 427.286 250.05 427.286 250.042 427.282C250.025 427.273 249.965 427.244 249.762 427.147C249.52 427.032 249.076 426.821 248.257 426.434L247.08 425.878C246.463 425.586 246.463 425.587 246.463 425.587L246.462 425.591L246.455 425.613L246.426 425.708C246.4 425.793 246.36 425.923 246.306 426.097C246.197 426.444 246.032 426.965 245.808 427.651C245.361 429.024 244.681 431.056 243.754 433.676C241.901 438.916 239.062 446.506 235.132 455.87C227.27 474.599 215.044 500.413 197.606 528.706C162.728 585.292 107.028 651.746 23.7017 691.313C15.7738 695.077 7.88996 698.458 0.0641715 701.485L0.0498241 706.525Z" fill="#CBD400"/>
<path d="M736.741 0.0972212C747.639 40.9437 763.453 83.422 786.109 125.082C836.799 218.287 901.938 270.979 954.383 300.365C980.606 315.059 1003.67 323.931 1020.18 329.133C1028.44 331.734 1035.06 333.418 1039.63 334.453C1041.91 334.97 1043.68 335.325 1044.89 335.551C1045.49 335.665 1045.95 335.746 1046.26 335.799C1046.42 335.825 1046.53 335.845 1046.61 335.858L1046.71 335.873L1046.73 335.877L1046.74 335.878C1046.74 335.878 1046.74 335.878 1046.98 333.488L1047.13 331.919C1047.21 331.098 1047.21 331.098 1047.21 331.098L1047.21 331.097L1047.19 331.094L1047.11 331.081C1047.04 331.07 1046.93 331.052 1046.78 331.027C1046.49 330.976 1046.04 330.899 1045.46 330.789C1044.29 330.569 1042.56 330.222 1040.32 329.713C1035.83 328.696 1029.29 327.034 1021.12 324.462C1004.78 319.316 981.937 310.528 955.949 295.967C903.973 266.844 839.47 214.653 789.277 122.362C767.125 81.6313 751.575 40.103 740.791 0.108785L736.741 0.0972212Z" fill="#CBD400"/>
<path d="M1438.88 394.383C1421.44 392.722 1400.85 386.723 1380.08 371.57C1353.27 352.012 1336.6 324.825 1326.63 302.488C1321.65 291.322 1318.35 281.386 1316.29 274.253C1315.27 270.687 1314.55 267.824 1314.1 265.862C1313.87 264.881 1313.71 264.125 1313.6 263.619C1313.57 263.47 1313.54 263.342 1313.52 263.237L1313.5 263.148L1313.49 263.051L1313.47 262.955L1313.46 262.914L1313.45 262.883L1313.45 262.876C1313.45 262.876 1313.45 262.877 1311.59 263.429C1309.72 263.981 1309.72 263.984 1309.72 263.984L1309.72 264.002L1309.73 264.047C1309.74 264.086 1309.75 264.142 1309.76 264.215C1309.79 264.359 1309.83 264.57 1309.89 264.844C1310.01 265.391 1310.18 266.19 1310.42 267.216C1310.89 269.267 1311.63 272.227 1312.69 275.896C1314.8 283.232 1318.19 293.414 1323.29 304.847C1333.49 327.706 1350.59 355.63 1378.15 375.736C1399.62 391.398 1420.9 397.543 1438.87 399.211L1438.88 394.383Z" fill="#CBD400"/>
<path d="M1171.85 582.262C1170.41 580.67 1170.41 580.669 1170.41 580.669L1170.41 580.679L1170.37 580.73C1170.35 580.757 1170.32 580.793 1170.29 580.838C1170.27 580.871 1170.24 580.909 1170.21 580.951C1170.06 581.15 1169.83 581.449 1169.53 581.834C1168.92 582.604 1168.01 583.716 1166.8 585.056C1164.38 587.739 1160.79 591.328 1156.13 594.916C1146.8 602.094 1133.23 609.242 1116.17 609.193C1099.11 609.144 1085.21 601.914 1075.55 594.666C1070.72 591.043 1066.97 587.426 1064.43 584.723C1063.16 583.372 1062.2 582.251 1061.55 581.475C1061.23 581.087 1060.99 580.785 1060.83 580.584C1060.76 580.483 1060.7 580.408 1060.66 580.359L1060.62 580.307L1060.61 580.296L1060.61 580.295C1060.61 580.295 1060.61 580.296 1059.21 581.941C1057.81 583.585 1057.81 583.586 1057.81 583.586L1057.82 583.596L1057.83 583.617C1057.85 583.635 1057.87 583.66 1057.89 583.692C1057.94 583.755 1058.01 583.846 1058.1 583.961C1058.28 584.193 1058.55 584.527 1058.89 584.947C1059.59 585.788 1060.61 586.977 1061.95 588.399C1064.62 591.242 1068.54 595.021 1073.58 598.801C1083.65 606.357 1098.23 613.958 1116.16 614.009C1134.1 614.06 1148.36 606.538 1158.13 599.022C1163.01 595.263 1166.78 591.499 1169.34 588.664C1170.62 587.246 1171.59 586.059 1172.25 585.22C1172.58 584.8 1172.84 584.466 1173.01 584.234C1173.1 584.118 1173.16 584.027 1173.21 583.963C1173.23 583.931 1173.25 583.906 1173.26 583.888L1173.28 583.866L1173.28 583.859L1173.28 583.856C1173.28 583.856 1173.29 583.855 1171.85 582.262Z" fill="#CBD400"/>
<path d="M357.025 125.24C357.081 124.947 357.191 124.361 357.411 123.189C357.851 120.844 357.854 120.845 357.854 120.845L357.857 120.846L357.867 120.849L357.903 120.86C357.934 120.869 357.977 120.883 358.034 120.9C358.146 120.935 358.309 120.987 358.521 121.058C358.945 121.198 359.563 121.411 360.356 121.705C361.941 122.294 364.226 123.21 367.056 124.526C372.713 127.159 380.555 131.397 389.333 137.835C406.889 150.711 428.23 172.415 443.295 207.7C458.357 242.979 461.254 278.036 460.396 304.235C459.967 317.338 458.599 328.246 457.335 335.889C456.702 339.712 456.096 342.72 455.645 344.782C455.42 345.813 455.233 346.608 455.102 347.15C455.036 347.42 454.984 347.628 454.948 347.77L454.921 347.877L454.906 347.934L454.894 347.979L454.89 347.996C454.89 347.996 454.889 347.998 453.07 347.24C451.251 346.481 451.251 346.482 451.251 346.482L451.253 346.476L451.261 346.446L451.274 346.393L451.295 346.311C451.326 346.188 451.373 346.001 451.434 345.751C451.555 345.251 451.732 344.499 451.948 343.513C452.379 341.54 452.966 338.631 453.58 334.915C454.809 327.484 456.146 316.841 456.565 304.044C457.403 278.443 454.568 244.3 439.915 209.98C425.264 175.666 404.509 154.545 387.396 141.995C378.841 135.72 371.205 131.595 365.719 129.042C362.977 127.767 360.774 126.884 359.264 126.324C358.509 126.043 357.928 125.843 357.539 125.714C357.345 125.65 357.199 125.603 357.103 125.574C357.055 125.559 357.02 125.548 356.998 125.541L356.975 125.534L356.97 125.533L356.984 125.457L357.025 125.24Z" fill="#CBD400"/>
<path d="M682.425 398.092L681.082 397.253C680.486 396.882 680.098 396.639 679.844 396.48C679.675 396.375 679.566 396.307 679.496 396.262C679.366 396.181 679.367 396.181 679.367 396.181L679.368 396.178L679.382 396.143L679.418 396.053C679.45 395.976 679.495 395.867 679.554 395.727C679.673 395.446 679.848 395.042 680.082 394.529C680.548 393.503 681.247 392.04 682.19 390.255C684.075 386.687 686.941 381.827 690.886 376.611C698.774 366.178 711.01 354.277 728.352 348.496C745.689 342.717 761.338 345.318 772.626 349.341C778.272 351.354 782.842 353.727 786.009 355.604C787.594 356.542 788.829 357.358 789.674 357.943C790.097 358.236 790.422 358.472 790.645 358.636C790.688 358.668 790.727 358.697 790.762 358.723C790.819 358.766 790.866 358.801 790.903 358.829C790.933 358.852 790.956 358.87 790.972 358.883L790.992 358.898L791.001 358.905C791.001 358.905 791.003 358.906 789.986 360.95C788.97 362.993 788.971 362.994 788.971 362.994L788.97 362.993L788.96 362.985L788.911 362.948C788.865 362.913 788.794 362.859 788.697 362.788C788.503 362.644 788.209 362.431 787.819 362.161C787.038 361.62 785.875 360.851 784.37 359.96C781.358 358.175 776.985 355.903 771.574 353.974C760.747 350.115 745.824 347.653 729.331 353.151C712.843 358.647 701.198 369.961 693.665 379.925C689.898 384.906 687.168 389.538 685.384 392.914C684.492 394.602 683.839 395.972 683.411 396.913C683.306 397.145 683.214 397.35 683.136 397.528C683.109 397.59 683.083 397.649 683.059 397.704C683.038 397.754 683.017 397.801 682.998 397.846L682.974 397.903L682.939 397.985C682.888 398.105 682.851 398.195 682.827 398.252L682.803 398.313L682.797 398.325C682.797 398.325 682.798 398.325 682.425 398.092Z" fill="#CBD400"/>
<path d="M122.113 174.164C120.234 173.688 120.234 173.687 120.234 173.687L120.232 173.701L120.221 173.768C120.21 173.83 120.192 173.929 120.168 174.061C120.145 174.183 120.117 174.334 120.082 174.513C120.052 174.665 120.017 174.838 119.978 175.031C119.963 175.101 119.948 175.174 119.933 175.25C119.713 176.297 119.364 177.833 118.85 179.752C117.822 183.592 116.139 188.953 113.526 194.987C108.299 207.056 99.3789 221.766 84.5802 232.433C69.7769 243.103 54.8499 245.577 43.5924 245.37C37.9664 245.266 33.2729 244.494 29.9951 243.75C28.357 243.378 27.0747 243.014 26.209 242.745C25.7762 242.611 25.4476 242.501 25.2311 242.426C25.1784 242.407 25.1324 242.391 25.0931 242.377L24.9912 242.34L24.9361 242.32L24.9251 242.316L24.924 242.315L24.9118 242.367L24.3642 244.619C23.8032 246.923 23.8049 246.923 23.8049 246.923L23.8146 246.927L23.837 246.936L23.9158 246.965L24.0415 247.01C24.0888 247.027 24.1431 247.046 24.2039 247.067C24.3492 247.118 24.533 247.18 24.7537 247.252C24.9121 247.303 25.0895 247.36 25.2852 247.421C26.2227 247.712 27.5842 248.097 29.3084 248.489C32.7554 249.271 37.6605 250.077 43.5312 250.185C55.2668 250.401 70.9244 247.825 86.4855 236.609C102.051 225.39 111.421 209.921 116.894 197.284C119.63 190.964 121.398 185.339 122.485 181.282C123.028 179.252 123.402 177.612 123.641 176.47C123.694 176.216 123.741 175.986 123.781 175.783C123.831 175.528 123.872 175.314 123.903 175.142C123.932 174.987 123.953 174.867 123.968 174.783L123.985 174.684L123.99 174.655L123.991 174.646L123.992 174.642C123.992 174.642 123.992 174.642 123.691 174.565L122.113 174.164Z" fill="#CBD400"/>
</svg>
