<svg width="100" height="100" viewBox="0 0 100 100" fill="none" xmlns="http://www.w3.org/2000/svg">
<path fill-rule="evenodd" clip-rule="evenodd" d="M39.0106 43.3311C39.5048 42.7856 38.223 36.3927 37.9913 33.8447C37.3079 26.3318 36.9516 18.8782 36.9516 11.3175C36.9516 8.64613 36.7933 4.37797 39.5508 2.99949C43.0011 1.27465 44.2282 8.1915 44.5757 9.93089C46.0805 17.4532 45.0828 33.3185 53.4136 37.4836C56.3097 38.9319 78.6821 30.7594 81.8325 29.8589C85.7252 28.747 88.1119 28.2947 91.6332 29.4689C93.616 30.1296 93.6241 34.6481 92.2299 35.5777C86.6031 39.329 79.6082 42.0615 73.5151 45.1083C66.9743 48.3787 63.3313 48.076 62.2515 56.7189C61.6781 61.3037 63.7807 65.4357 64.8507 69.7149C66.086 74.6572 66.7182 79.4184 67.2764 84.4445C67.6606 87.8977 68.1851 93.9332 65.544 96.5749C62.3935 99.7254 59.2617 91.3095 58.7855 89.6435C55.2357 77.2179 54.7799 64.2417 44.0559 56.199C41.7827 54.494 37.3376 55.5826 34.8717 56.199C32.1991 56.8667 16.0293 63.2672 10.6115 64.1701C7.68568 64.658 6.02021 60.877 7.14605 58.6248C8.33359 56.2497 13.9738 54.604 16.3303 53.4264C19.3783 51.9023 22.5707 50.684 25.6874 49.2671C30.1168 47.2541 36.8032 45.7685 39.0106 43.3311Z" fill="#3F4D74"/>
</svg>
